<?xml version="1.0" encoding="utf-8" standalone="no"?>
<!DOCTYPE svg PUBLIC "-//W3C//DTD SVG 1.1//EN"
  "http://www.w3.org/Graphics/SVG/1.1/DTD/svg11.dtd">
<svg xmlns:xlink="http://www.w3.org/1999/xlink" width="402.543969pt" height="207.493875pt" viewBox="0 0 402.543969 207.493875" xmlns="http://www.w3.org/2000/svg" version="1.1">
 <metadata>
  <rdf:RDF xmlns:dc="http://purl.org/dc/elements/1.1/" xmlns:cc="http://creativecommons.org/ns#" xmlns:rdf="http://www.w3.org/1999/02/22-rdf-syntax-ns#">
   <cc:Work>
    <dc:type rdf:resource="http://purl.org/dc/dcmitype/StillImage"/>
    <dc:date>2026-09-03T16:36:13.030703</dc:date>
    <dc:format>image/svg+xml</dc:format>
    <dc:creator>
     <cc:Agent>
      <dc:title>Matplotlib v3.10.0, https://matplotlib.org/</dc:title>
     </cc:Agent>
    </dc:creator>
   </cc:Work>
  </rdf:RDF>
 </metadata>
 <defs>
  <style type="text/css">*{stroke-linejoin: round; stroke-linecap: butt}</style>
 </defs>
 <g id="figure_1">
  <g id="patch_1">
   <path d="M 0 207.493875 
L 402.543969 207.493875 
L 402.543969 0 
L 0 0 
z
" style="fill: #ffffff"/>
  </g>
  <g id="axes_1">
   <g id="patch_2">
    <path d="M 101.189 176.51875 
L 390.414 176.51875 
L 390.414 19.27875 
L 101.189 19.27875 
z
" style="fill: #ffffff"/>
   </g>
   <g id="matplotlib.axis_1">
    <g id="xtick_1">
     <g id="line2d_1">
      <path d="M 127.449291 176.51875 
L 127.449291 19.27875 
" clip-path="url(#p7f76fffd92)" style="fill: none; stroke-dasharray: 1.48,0.64; stroke-dashoffset: 0; stroke: #b0b0b0; stroke-opacity: 0.35; stroke-width: 0.4"/>
     </g>
     <g id="line2d_2">
      <defs>
       <path id="m3f780a6522" d="M 0 0 
L 0 3.5 
" style="stroke: #000000; stroke-width: 0.8"/>
      </defs>
      <g>
       <use xlink:href="#m3f780a6522" x="127.449291" y="176.51875" style="stroke: #000000; stroke-width: 0.8"/>
      </g>
     </g>
     <g id="text_1">
      <text style="font-size: 6.2px; font-family: 'Arial', 'Helvetica', 'DejaVu Sans', sans-serif; text-anchor: middle" x="127.449291" y="188.229781" transform="rotate(-0 127.449291 188.229781)">0.4</text>
     </g>
    </g>
    <g id="xtick_2">
     <g id="line2d_3">
      <path d="M 171.276742 176.51875 
L 171.276742 19.27875 
" clip-path="url(#p7f76fffd92)" style="fill: none; stroke-dasharray: 1.48,0.64; stroke-dashoffset: 0; stroke: #b0b0b0; stroke-opacity: 0.35; stroke-width: 0.4"/>
     </g>
     <g id="line2d_4">
      <g>
       <use xlink:href="#m3f780a6522" x="171.276742" y="176.51875" style="stroke: #000000; stroke-width: 0.8"/>
      </g>
     </g>
     <g id="text_2">
      <text style="font-size: 6.2px; font-family: 'Arial', 'Helvetica', 'DejaVu Sans', sans-serif; text-anchor: middle" x="171.276742" y="188.229781" transform="rotate(-0 171.276742 188.229781)">0.5</text>
     </g>
    </g>
    <g id="xtick_3">
     <g id="line2d_5">
      <path d="M 215.104194 176.51875 
L 215.104194 19.27875 
" clip-path="url(#p7f76fffd92)" style="fill: none; stroke-dasharray: 1.48,0.64; stroke-dashoffset: 0; stroke: #b0b0b0; stroke-opacity: 0.35; stroke-width: 0.4"/>
     </g>
     <g id="line2d_6">
      <g>
       <use xlink:href="#m3f780a6522" x="215.104194" y="176.51875" style="stroke: #000000; stroke-width: 0.8"/>
      </g>
     </g>
     <g id="text_3">
      <text style="font-size: 6.2px; font-family: 'Arial', 'Helvetica', 'DejaVu Sans', sans-serif; text-anchor: middle" x="215.104194" y="188.229781" transform="rotate(-0 215.104194 188.229781)">0.6</text>
     </g>
    </g>
    <g id="xtick_4">
     <g id="line2d_7">
      <path d="M 258.931645 176.51875 
L 258.931645 19.27875 
" clip-path="url(#p7f76fffd92)" style="fill: none; stroke-dasharray: 1.48,0.64; stroke-dashoffset: 0; stroke: #b0b0b0; stroke-opacity: 0.35; stroke-width: 0.4"/>
     </g>
     <g id="line2d_8">
      <g>
       <use xlink:href="#m3f780a6522" x="258.931645" y="176.51875" style="stroke: #000000; stroke-width: 0.8"/>
      </g>
     </g>
     <g id="text_4">
      <text style="font-size: 6.2px; font-family: 'Arial', 'Helvetica', 'DejaVu Sans', sans-serif; text-anchor: middle" x="258.931645" y="188.229781" transform="rotate(-0 258.931645 188.229781)">0.7</text>
     </g>
    </g>
    <g id="xtick_5">
     <g id="line2d_9">
      <path d="M 302.759097 176.51875 
L 302.759097 19.27875 
" clip-path="url(#p7f76fffd92)" style="fill: none; stroke-dasharray: 1.48,0.64; stroke-dashoffset: 0; stroke: #b0b0b0; stroke-opacity: 0.35; stroke-width: 0.4"/>
     </g>
     <g id="line2d_10">
      <g>
       <use xlink:href="#m3f780a6522" x="302.759097" y="176.51875" style="stroke: #000000; stroke-width: 0.8"/>
      </g>
     </g>
     <g id="text_5">
      <text style="font-size: 6.2px; font-family: 'Arial', 'Helvetica', 'DejaVu Sans', sans-serif; text-anchor: middle" x="302.759097" y="188.229781" transform="rotate(-0 302.759097 188.229781)">0.8</text>
     </g>
    </g>
    <g id="xtick_6">
     <g id="line2d_11">
      <path d="M 346.586548 176.51875 
L 346.586548 19.27875 
" clip-path="url(#p7f76fffd92)" style="fill: none; stroke-dasharray: 1.48,0.64; stroke-dashoffset: 0; stroke: #b0b0b0; stroke-opacity: 0.35; stroke-width: 0.4"/>
     </g>
     <g id="line2d_12">
      <g>
       <use xlink:href="#m3f780a6522" x="346.586548" y="176.51875" style="stroke: #000000; stroke-width: 0.8"/>
      </g>
     </g>
     <g id="text_6">
      <text style="font-size: 6.2px; font-family: 'Arial', 'Helvetica', 'DejaVu Sans', sans-serif; text-anchor: middle" x="346.586548" y="188.229781" transform="rotate(-0 346.586548 188.229781)">0.9</text>
     </g>
    </g>
    <g id="xtick_7">
     <g id="line2d_13">
      <path d="M 390.414 176.51875 
L 390.414 19.27875 
" clip-path="url(#p7f76fffd92)" style="fill: none; stroke-dasharray: 1.48,0.64; stroke-dashoffset: 0; stroke: #b0b0b0; stroke-opacity: 0.35; stroke-width: 0.4"/>
     </g>
     <g id="line2d_14">
      <g>
       <use xlink:href="#m3f780a6522" x="390.414" y="176.51875" style="stroke: #000000; stroke-width: 0.8"/>
      </g>
     </g>
     <g id="text_7">
      <text style="font-size: 6.2px; font-family: 'Arial', 'Helvetica', 'DejaVu Sans', sans-serif; text-anchor: middle" x="390.414" y="188.229781" transform="rotate(-0 390.414 188.229781)">1.0</text>
     </g>
    </g>
    <g id="text_8">
     <text style="font-size: 7px; font-family: 'Arial', 'Helvetica', 'DejaVu Sans', sans-serif; text-anchor: middle" x="245.8015" y="198.838094" transform="rotate(-0 245.8015 198.838094)">Object-level F1</text>
    </g>
   </g>
   <g id="matplotlib.axis_2">
    <g id="ytick_1">
     <g id="line2d_15"/>
     <g id="text_9">
      <text style="font-weight: 700; font-size: 6.2px; font-family: 'Arial', 'Helvetica', 'DejaVu Sans', sans-serif; text-anchor: end" x="97.689" y="35.98023" transform="rotate(-0 97.689 35.98023)">ecCount (peaks)</text>
     </g>
    </g>
    <g id="ytick_2">
     <g id="line2d_16"/>
     <g id="text_10">
      <text style="font-weight: 700; font-size: 6.2px; font-family: 'Arial', 'Helvetica', 'DejaVu Sans', sans-serif; text-anchor: end" x="97.689" y="61.689844" transform="rotate(-0 97.689 61.689844)">ecCount (threshold mask)</text>
     </g>
    </g>
    <g id="ytick_3">
     <g id="line2d_17"/>
     <g id="text_11">
      <text style="font-size: 6.2px; font-family: 'Arial', 'Helvetica', 'DejaVu Sans', sans-serif; text-anchor: end" x="97.689" y="87.399459" transform="rotate(-0 97.689 87.399459)">Label Engine</text>
     </g>
    </g>
    <g id="ytick_4">
     <g id="line2d_18"/>
     <g id="text_12">
      <text style="font-size: 6.2px; font-family: 'Arial', 'Helvetica', 'DejaVu Sans', sans-serif; text-anchor: end" x="97.689" y="113.109073" transform="rotate(-0 97.689 113.109073)">MIA</text>
     </g>
    </g>
    <g id="ytick_5">
     <g id="line2d_19"/>
     <g id="text_13">
      <text style="font-size: 6.2px; font-family: 'Arial', 'Helvetica', 'DejaVu Sans', sans-serif; text-anchor: end" x="97.689" y="138.818687" transform="rotate(-0 97.689 138.818687)">Classic (after opt)</text>
     </g>
    </g>
    <g id="ytick_6">
     <g id="line2d_20"/>
     <g id="text_14">
      <text style="font-size: 6.2px; font-family: 'Arial', 'Helvetica', 'DejaVu Sans', sans-serif; text-anchor: end" x="97.689" y="164.528301" transform="rotate(-0 97.689 164.528301)">ecSeg</text>
     </g>
    </g>
   </g>
   <g id="line2d_21">
    <path d="M 323.367132 33.624715 
L 380.394747 33.624715 
" clip-path="url(#p7f76fffd92)" style="fill: none; stroke: #f58518; stroke-opacity: 0.45; stroke-width: 1.6; stroke-linecap: round"/>
   </g>
   <g id="line2d_22">
    <path d="M 308.982592 59.334329 
L 370.83454 59.334329 
" clip-path="url(#p7f76fffd92)" style="fill: none; stroke: #9c755f; stroke-opacity: 0.45; stroke-width: 1.6; stroke-linecap: round"/>
   </g>
   <g id="line2d_23">
    <path d="M 239.954861 85.043943 
L 344.96772 85.043943 
" clip-path="url(#p7f76fffd92)" style="fill: none; stroke: #e45756; stroke-opacity: 0.45; stroke-width: 1.6; stroke-linecap: round"/>
   </g>
   <g id="line2d_24">
    <path d="M 220.319199 110.753557 
L 337.35678 110.753557 
" clip-path="url(#p7f76fffd92)" style="fill: none; stroke: #4c78a8; stroke-opacity: 0.45; stroke-width: 1.6; stroke-linecap: round"/>
   </g>
   <g id="line2d_25">
    <path d="M 224.963197 136.463171 
L 347.13904 136.463171 
" clip-path="url(#p7f76fffd92)" style="fill: none; stroke: #54a24b; stroke-opacity: 0.45; stroke-width: 1.6; stroke-linecap: round"/>
   </g>
   <g id="line2d_26">
    <path d="M 127.485471 162.172785 
L 207.615719 162.172785 
" clip-path="url(#p7f76fffd92)" style="fill: none; stroke: #b279a2; stroke-opacity: 0.45; stroke-width: 1.6; stroke-linecap: round"/>
   </g>
   <g id="patch_3">
    <path d="M 101.189 176.51875 
L 101.189 19.27875 
" style="fill: none; stroke: #000000; stroke-width: 0.8; stroke-linejoin: miter; stroke-linecap: square"/>
   </g>
   <g id="patch_4">
    <path d="M 101.189 176.51875 
L 390.414 176.51875 
" style="fill: none; stroke: #000000; stroke-width: 0.8; stroke-linejoin: miter; stroke-linecap: square"/>
   </g>
   <g id="line2d_27">
    <path d="M 361.111413 33.624715 
L 373.898616 33.624715 
" clip-path="url(#p7f76fffd92)" style="fill: none; stroke: #f58518; stroke-opacity: 0.95; stroke-width: 6"/>
   </g>
   <g id="line2d_28">
    <path d="M 350.766847 59.334329 
L 363.986272 59.334329 
" clip-path="url(#p7f76fffd92)" style="fill: none; stroke: #9c755f; stroke-opacity: 0.95; stroke-width: 6"/>
   </g>
   <g id="line2d_29">
    <path d="M 308.739388 85.043943 
L 333.115404 85.043943 
" clip-path="url(#p7f76fffd92)" style="fill: none; stroke: #e45756; stroke-opacity: 0.95; stroke-width: 6"/>
   </g>
   <g id="line2d_30">
    <path d="M 303.730543 110.753557 
L 326.674654 110.753557 
" clip-path="url(#p7f76fffd92)" style="fill: none; stroke: #4c78a8; stroke-opacity: 0.95; stroke-width: 6"/>
   </g>
   <g id="line2d_31">
    <path d="M 283.291968 136.463171 
L 328.958428 136.463171 
" clip-path="url(#p7f76fffd92)" style="fill: none; stroke: #54a24b; stroke-opacity: 0.95; stroke-width: 6"/>
   </g>
   <g id="line2d_32">
    <path d="M 171.835152 162.172785 
L 191.712653 162.172785 
" clip-path="url(#p7f76fffd92)" style="fill: none; stroke: #b279a2; stroke-opacity: 0.95; stroke-width: 6"/>
   </g>
   <g id="text_15">
    <text style="font-size: 8px; font-family: 'Arial', 'Helvetica', 'DejaVu Sans', sans-serif; text-anchor: middle" x="245.8015" y="13.27875" transform="rotate(-0 245.8015 13.27875)">Robustness of F1 across the matching grid, held-out test split (n = 175)</text>
   </g>
   <g id="line2d_33">
    <path d="M 366.78925 40.823407 
L 366.78925 26.426023 
" clip-path="url(#p7f76fffd92)" style="fill: none; stroke: #1a1a1a; stroke-width: 1.4; stroke-linecap: square"/>
   </g>
   <g id="line2d_34">
    <path d="M 356.625459 66.533021 
L 356.625459 52.135637 
" clip-path="url(#p7f76fffd92)" style="fill: none; stroke: #1a1a1a; stroke-width: 1.4; stroke-linecap: square"/>
   </g>
   <g id="line2d_35">
    <path d="M 319.683312 92.242635 
L 319.683312 77.845251 
" clip-path="url(#p7f76fffd92)" style="fill: none; stroke: #1a1a1a; stroke-width: 1.4; stroke-linecap: square"/>
   </g>
   <g id="line2d_36">
    <path d="M 314.022273 117.952249 
L 314.022273 103.554865 
" clip-path="url(#p7f76fffd92)" style="fill: none; stroke: #1a1a1a; stroke-width: 1.4; stroke-linecap: square"/>
   </g>
   <g id="line2d_37">
    <path d="M 303.958229 143.661863 
L 303.958229 129.264479 
" clip-path="url(#p7f76fffd92)" style="fill: none; stroke: #1a1a1a; stroke-width: 1.4; stroke-linecap: square"/>
   </g>
   <g id="line2d_38">
    <path d="M 179.400402 169.371477 
L 179.400402 154.974093 
" clip-path="url(#p7f76fffd92)" style="fill: none; stroke: #1a1a1a; stroke-width: 1.4; stroke-linecap: square"/>
   </g>
   <g id="legend_1">
    <g id="line2d_39">
     <path d="M 316.691469 145.132594 
L 321.331469 145.132594 
L 325.971469 145.132594 
" style="fill: none; stroke: #737373; stroke-width: 1.6; stroke-linecap: square"/>
    </g>
    <g id="text_16">
     <text style="font-size: 5.8px; font-family: 'Arial', 'Helvetica', 'DejaVu Sans', sans-serif; text-anchor: start" x="330.611469" y="147.162594" transform="rotate(-0 330.611469 147.162594)">Full range</text>
    </g>
    <g id="line2d_40">
     <path d="M 316.691469 152.775906 
L 321.331469 152.775906 
L 325.971469 152.775906 
" style="fill: none; stroke: #737373; stroke-width: 6; stroke-linecap: square"/>
    </g>
    <g id="text_17">
     <text style="font-size: 5.8px; font-family: 'Arial', 'Helvetica', 'DejaVu Sans', sans-serif; text-anchor: start" x="330.611469" y="154.805906" transform="rotate(-0 330.611469 154.805906)">Interquartile range</text>
    </g>
    <g id="line2d_41">
     <path d="M 316.691469 160.419219 
L 321.331469 160.419219 
L 325.971469 160.419219 
" style="fill: none; stroke: #1a1a1a; stroke-width: 1.4; stroke-linecap: square"/>
    </g>
    <g id="text_18">
     <text style="font-size: 5.8px; font-family: 'Arial', 'Helvetica', 'DejaVu Sans', sans-serif; text-anchor: start" x="330.611469" y="162.449219" transform="rotate(-0 330.611469 162.449219)">Median</text>
    </g>
    <g id="line2d_42">
     <path d="M 316.691469 168.062531 
L 321.331469 168.062531 
L 325.971469 168.062531 
" style="fill: none; stroke: #000000; stroke-opacity: 0; stroke-width: 1.2; stroke-linecap: square"/>
     <defs>
      <path id="m005e027d57" d="M 0 3 
C 0.795609 3 1.55874 2.683901 2.12132 2.12132 
C 2.683901 1.55874 3 0.795609 3 0 
C 3 -0.795609 2.683901 -1.55874 2.12132 -2.12132 
C 1.55874 -2.683901 0.795609 -3 0 -3 
C -0.795609 -3 -1.55874 -2.683901 -2.12132 -2.12132 
C -2.683901 -1.55874 -3 -0.795609 -3 0 
C -3 0.795609 -2.683901 1.55874 -2.12132 2.12132 
C -1.55874 2.683901 -0.795609 3 0 3 
z
" style="stroke: #1a1a1a"/>
     </defs>
     <g>
      <use xlink:href="#m005e027d57" x="321.331469" y="168.062531" style="fill: #ffffff; stroke: #1a1a1a"/>
     </g>
    </g>
    <g id="text_19">
     <text style="font-size: 5.8px; font-family: 'Arial', 'Helvetica', 'DejaVu Sans', sans-serif; text-anchor: start" x="330.611469" y="170.092531" transform="rotate(-0 330.611469 170.092531)">Canonical point</text>
    </g>
   </g>
   <g id="line2d_43">
    <defs>
     <path id="m7b55c55eb2" d="M 0 3 
C 0.795609 3 1.55874 2.683901 2.12132 2.12132 
C 2.683901 1.55874 3 0.795609 3 0 
C 3 -0.795609 2.683901 -1.55874 2.12132 -2.12132 
C 1.55874 -2.683901 0.795609 -3 0 -3 
C -0.795609 -3 -1.55874 -2.683901 -2.12132 -2.12132 
C -2.683901 -1.55874 -3 -0.795609 -3 0 
C -3 0.795609 -2.683901 1.55874 -2.12132 2.12132 
C -1.55874 2.683901 -0.795609 3 0 3 
z
" style="stroke: #1a1a1a; stroke-width: 0.9"/>
    </defs>
    <g clip-path="url(#p7f76fffd92)">
     <use xlink:href="#m7b55c55eb2" x="363.738145" y="33.624715" style="fill: #f58518; stroke: #1a1a1a; stroke-width: 0.9"/>
    </g>
   </g>
   <g id="line2d_44">
    <defs>
     <path id="mb7a0edf569" d="M 0 3 
C 0.795609 3 1.55874 2.683901 2.12132 2.12132 
C 2.683901 1.55874 3 0.795609 3 0 
C 3 -0.795609 2.683901 -1.55874 2.12132 -2.12132 
C 1.55874 -2.683901 0.795609 -3 0 -3 
C -0.795609 -3 -1.55874 -2.683901 -2.12132 -2.12132 
C -2.683901 -1.55874 -3 -0.795609 -3 0 
C -3 0.795609 -2.683901 1.55874 -2.12132 2.12132 
C -1.55874 2.683901 -0.795609 3 0 3 
z
" style="stroke: #1a1a1a; stroke-width: 0.9"/>
    </defs>
    <g clip-path="url(#p7f76fffd92)">
     <use xlink:href="#mb7a0edf569" x="353.452718" y="59.334329" style="fill: #9c755f; stroke: #1a1a1a; stroke-width: 0.9"/>
    </g>
   </g>
   <g id="line2d_45">
    <defs>
     <path id="m8ff6c797e9" d="M 0 3 
C 0.795609 3 1.55874 2.683901 2.12132 2.12132 
C 2.683901 1.55874 3 0.795609 3 0 
C 3 -0.795609 2.683901 -1.55874 2.12132 -2.12132 
C 1.55874 -2.683901 0.795609 -3 0 -3 
C -0.795609 -3 -1.55874 -2.683901 -2.12132 -2.12132 
C -2.683901 -1.55874 -3 -0.795609 -3 0 
C -3 0.795609 -2.683901 1.55874 -2.12132 2.12132 
C -1.55874 2.683901 -0.795609 3 0 3 
z
" style="stroke: #1a1a1a; stroke-width: 0.9"/>
    </defs>
    <g clip-path="url(#p7f76fffd92)">
     <use xlink:href="#m8ff6c797e9" x="313.706211" y="85.043943" style="fill: #e45756; stroke: #1a1a1a; stroke-width: 0.9"/>
    </g>
   </g>
   <g id="line2d_46">
    <defs>
     <path id="mdfeee9ac93" d="M 0 3 
C 0.795609 3 1.55874 2.683901 2.12132 2.12132 
C 2.683901 1.55874 3 0.795609 3 0 
C 3 -0.795609 2.683901 -1.55874 2.12132 -2.12132 
C 1.55874 -2.683901 0.795609 -3 0 -3 
C -0.795609 -3 -1.55874 -2.683901 -2.12132 -2.12132 
C -2.683901 -1.55874 -3 -0.795609 -3 0 
C -3 0.795609 -2.683901 1.55874 -2.12132 2.12132 
C -1.55874 2.683901 -0.795609 3 0 3 
z
" style="stroke: #1a1a1a; stroke-width: 0.9"/>
    </defs>
    <g clip-path="url(#p7f76fffd92)">
     <use xlink:href="#mdfeee9ac93" x="308.340284" y="110.753557" style="fill: #4c78a8; stroke: #1a1a1a; stroke-width: 0.9"/>
    </g>
   </g>
   <g id="line2d_47">
    <defs>
     <path id="m685d221266" d="M 0 3 
C 0.795609 3 1.55874 2.683901 2.12132 2.12132 
C 2.683901 1.55874 3 0.795609 3 0 
C 3 -0.795609 2.683901 -1.55874 2.12132 -2.12132 
C 1.55874 -2.683901 0.795609 -3 0 -3 
C -0.795609 -3 -1.55874 -2.683901 -2.12132 -2.12132 
C -2.683901 -1.55874 -3 -0.795609 -3 0 
C -3 0.795609 -2.683901 1.55874 -2.12132 2.12132 
C -1.55874 2.683901 -0.795609 3 0 3 
z
" style="stroke: #1a1a1a; stroke-width: 0.9"/>
    </defs>
    <g clip-path="url(#p7f76fffd92)">
     <use xlink:href="#m685d221266" x="291.702895" y="136.463171" style="fill: #54a24b; stroke: #1a1a1a; stroke-width: 0.9"/>
    </g>
   </g>
   <g id="line2d_48">
    <defs>
     <path id="mec2c0fb0b5" d="M 0 3 
C 0.795609 3 1.55874 2.683901 2.12132 2.12132 
C 2.683901 1.55874 3 0.795609 3 0 
C 3 -0.795609 2.683901 -1.55874 2.12132 -2.12132 
C 1.55874 -2.683901 0.795609 -3 0 -3 
C -0.795609 -3 -1.55874 -2.683901 -2.12132 -2.12132 
C -2.683901 -1.55874 -3 -0.795609 -3 0 
C -3 0.795609 -2.683901 1.55874 -2.12132 2.12132 
C -1.55874 2.683901 -0.795609 3 0 3 
z
" style="stroke: #1a1a1a; stroke-width: 0.9"/>
    </defs>
    <g clip-path="url(#p7f76fffd92)">
     <use xlink:href="#mec2c0fb0b5" x="174.886319" y="162.172785" style="fill: #b279a2; stroke: #1a1a1a; stroke-width: 0.9"/>
    </g>
   </g>
  </g>
 </g>
 <defs>
  <clipPath id="p7f76fffd92">
   <rect x="101.189" y="19.27875" width="289.225" height="157.24"/>
  </clipPath>
 </defs>
</svg>
